HIERARCHY
ROOT SpineBase
{
  OFFSET 0.000000 0.000000 0.000000
  CHANNELS 6 Xposition Yposition Zposition Zrotation Xrotation Yrotation
  JOINT SpineMid
  {
    OFFSET 0.000000 30.443232 0.000000
    CHANNELS 3 Zrotation Xrotation Yrotation
    JOINT SpineShoulder
    {
      OFFSET 0.059936 22.613898 -0.726003
      CHANNELS 3 Zrotation Xrotation Yrotation
      JOINT Neck
      {
        OFFSET 0.045800 7.488272 -0.537667
        CHANNELS 3 Zrotation Xrotation Yrotation
        JOINT Head
        {
          OFFSET -5.515602 12.820442 0.854902
          CHANNELS 3 Zrotation Xrotation Yrotation
          End Site
          {
            OFFSET 0 0 0
          }
        }
      }
      JOINT ShoulderLeft
      {
        OFFSET -16.848573 -3.633788 9.429991
        CHANNELS 3 Zrotation Xrotation Yrotation
        JOINT ElbowLeft
        {
          OFFSET -2.580976 -22.171543 1.483302
          CHANNELS 3 Zrotation Xrotation Yrotation
          JOINT WristLeft
          {
            OFFSET 2.493182 -8.068059 -20.360919
            CHANNELS 3 Zrotation Xrotation Yrotation
            JOINT HandLeft
            {
              OFFSET 0.414956 -0.828843 -2.934836
              CHANNELS 3 Zrotation Xrotation Yrotation
              JOINT HandTipLeft
              {
                OFFSET -1.643093 -0.309025 -6.946674
                CHANNELS 3 Zrotation Xrotation Yrotation
                End Site
                {
                  OFFSET 0 0 0
                }
              }
              JOINT ThumbLeft
              {
                OFFSET 1.952006 -1.130137 -5.836373
                CHANNELS 3 Zrotation Xrotation Yrotation
                End Site
                {
                  OFFSET 0 0 0
                }
              }
            }
          }
        }
      }
      JOINT ShoulderRight
      {
        OFFSET 14.237183 -1.996763 -7.355809
        CHANNELS 3 Zrotation Xrotation Yrotation
        JOINT ElbowRight
        {
          OFFSET 9.675082 -22.096406 0.541348
          CHANNELS 3 Zrotation Xrotation Yrotation
          JOINT WristRight
          {
            OFFSET -21.249948 -12.793736 -11.125574
            CHANNELS 3 Zrotation Xrotation Yrotation
            JOINT HandRight
            {
              OFFSET -3.613494 -2.470896 2.632569
              CHANNELS 3 Zrotation Xrotation Yrotation
              JOINT HandTipRight
              {
                OFFSET -3.895046 -2.672545 1.136797
                CHANNELS 3 Zrotation Xrotation Yrotation
                End Site
                {
                  OFFSET 0 0 0
                }
              }
              JOINT ThumbRight
              {
                OFFSET -4.085460 5.126757 2.557863
                CHANNELS 3 Zrotation Xrotation Yrotation
                End Site
                {
                  OFFSET 0 0 0
                }
              }
            }
          }
        }
      }
    }
  }
  JOINT HipLeft
  {
    OFFSET -6.039449 -0.419896 -0.229762
    CHANNELS 3 Zrotation Xrotation Yrotation
    JOINT KneeLeft
    {
      OFFSET 1.344352 -36.509855 4.937983
      CHANNELS 3 Zrotation Xrotation Yrotation
      JOINT AnkleLeft
      {
        OFFSET 6.670073 -37.930015 11.464407
        CHANNELS 3 Zrotation Xrotation Yrotation
        JOINT FootLeft
        {
          OFFSET -3.121065 -7.553231 -6.077547
          CHANNELS 3 Zrotation Xrotation Yrotation
          End Site
          {
            OFFSET 0 0 0
          }
        }
      }
    }
  }
  JOINT HipRight
  {
    OFFSET 6.649834 1.909892 -6.141064
    CHANNELS 3 Zrotation Xrotation Yrotation
    JOINT KneeRight
    {
      OFFSET 6.688164 -35.920960 -5.922705
      CHANNELS 3 Zrotation Xrotation Yrotation
      JOINT AnkleRight
      {
        OFFSET 9.163652 -38.091846 7.770042
        CHANNELS 3 Zrotation Xrotation Yrotation
        JOINT FootRight
        {
          OFFSET -5.764669 -2.945606 -13.795523
          CHANNELS 3 Zrotation Xrotation Yrotation
          End Site
          {
            OFFSET 0 0 0
          }
        }
      }
    }
  }
}
MOTION
Frames: 12
Frame Time: 0.033333
-33.043495 82.785228 333.654575 -0.000000 0.000000 24.978455 0.000000 0.000000 -24.978455 -0.000000 0.000000 0.000000 -0.000000 0.000000 0.000000 0.000000 0.000000 0.000000 -0.000000 0.000000 0.000000 -0.000000 0.000000 0.000000 -0.000000 0.000000 0.000000 -0.000000 0.000000 0.000000 0.000000 0.000000 0.000000 0.000000 0.000000 0.000000 -0.000000 0.000000 0.000000 -0.000000 0.000000 0.000000 -0.000000 0.000000 0.000000 -0.000000 0.000000 0.000000 0.000000 0.000000 0.000000 0.000000 0.000000 0.000000 0.000000 0.000000 -24.978455 -0.000000 0.000000 0.000000 -0.000000 0.000000 0.000000 0.000000 0.000000 0.000000 0.000000 0.000000 -24.978455 -0.000000 0.000000 0.000000 -0.000000 0.000000 0.000000 0.000000 0.000000 0.000000
-32.898195 82.789341 333.029283 -0.060986 -0.201426 25.527062 0.141835 0.155482 -25.527362 -0.000000 0.000000 0.000000 -1.000970 1.206607 0.598237 0.000000 0.000000 0.000000 -0.000000 0.000000 0.000000 0.368097 1.388492 -0.488881 -3.906510 1.091942 13.372227 3.057033 -0.851392 -15.849463 0.000000 0.000000 0.000000 0.000000 0.000000 0.000000 -0.000000 0.000000 0.000000 0.985986 -0.304652 -0.354695 -6.095965 1.855735 -6.926342 -8.067372 4.219279 -5.680684 0.000000 0.000000 0.000000 0.000000 0.000000 0.000000 0.141835 0.155482 -25.527362 -0.000000 0.000000 0.000000 -0.890179 -0.711658 1.006590 0.000000 0.000000 0.000000 -0.050966 -1.842430 -25.995417 -0.702604 1.880250 0.476746 1.968186 -4.259641 -1.016656 0.000000 0.000000 0.000000
-32.765882 82.798570 332.449081 -0.130066 -0.368840 25.955418 0.278380 0.274708 -25.956504 -0.000000 0.000000 0.000000 -1.957839 2.197335 1.120337 0.000000 0.000000 0.000000 -0.634810 -0.581854 0.022019 1.329807 3.018385 -0.993210 -6.155670 0.463760 20.150174 5.167547 0.123693 -25.095280 0.000000 0.000000 0.000000 0.000000 0.000000 0.000000 -0.348224 0.681536 0.292390 2.576050 -1.370080 -1.099930 -10.781544 3.312334 -10.975953 -13.367703 7.604208 -9.441981 0.000000 0.000000 0.000000 0.000000 0.000000 0.000000 -0.388902 -0.751869 -26.024309 0.149272 1.215248 0.063443 -1.650745 -1.354172 1.874902 0.000000 0.000000 0.000000 -0.161405 -3.474723 -26.840751 -2.104541 4.528809 1.049089 4.888445 -10.069751 -2.015115 0.000000 0.000000 0.000000
-32.646555 82.812914 331.913969 -0.207235 -0.502956 26.262326 0.408399 0.359336 -26.264516 -0.000000 0.000000 0.000000 -2.863471 2.971575 1.557949 0.000000 0.000000 0.000000 -0.937092 -0.893131 0.033923 1.910873 4.035011 -1.464775 -7.414545 -0.678041 23.836850 6.915218 1.805815 -30.725460 0.000000 0.000000 0.000000 0.000000 0.000000 0.000000 -0.480609 0.860700 0.369452 4.224658 -2.008089 -1.762171 -14.641953 4.219196 -12.959352 -16.418242 10.202138 -11.774451 0.000000 0.000000 0.000000 0.000000 0.000000 0.000000 -0.569579 -1.096871 -26.366101 0.229722 1.739004 0.091803 -2.281455 -1.918576 2.603819 0.000000 0.000000 0.000000 -0.309299 -4.877769 -27.508809 -2.881813 6.282405 1.505795 7.472414 -15.724599 -2.883405 0.000000 0.000000 0.000000
-32.540215 82.832373 331.423946 -0.292514 -0.604381 26.446640 0.531083 0.410844 -26.450087 -0.000000 0.000000 0.000000 -3.712079 3.529943 1.903628 0.000000 0.000000 0.000000 -1.230485 -1.218499 0.046350 2.430024 4.722318 -1.912725 -8.035672 -2.030875 25.795458 8.196871 3.506840 -33.430469 0.000000 0.000000 0.000000 0.000000 0.000000 0.000000 -0.584378 0.932128 0.399555 6.114208 -2.619828 -2.506793 -18.033687 4.580891 -13.419309 -18.022471 12.382438 -13.386995 0.000000 0.000000 0.000000 0.000000 0.000000 0.000000 -0.737896 -1.423748 -26.585422 0.314179 2.208419 0.118061 -2.782722 -2.397568 3.192993 0.000000 0.000000 0.000000 -0.475311 -6.038304 -27.993581 -3.454505 7.681999 1.885828 10.134072 -21.673730 -3.599111 0.000000 0.000000 0.000000
-32.446862 82.856947 330.979013 -0.385946 -0.673613 26.507210 0.646031 0.430528 -26.511906 -0.000000 0.000000 0.000000 -4.499235 3.873733 2.150848 0.000000 0.000000 0.000000 -1.515803 -1.558412 0.059248 2.883232 5.081462 -2.333000 -8.165043 -3.593250 26.541293 8.827389 4.911254 -33.261070 0.000000 0.000000 0.000000 0.000000 0.000000 0.000000 -0.659290 0.895841 0.382296 8.221816 -3.204055 -3.332052 -21.127345 4.429412 -12.688143 -18.620534 14.417557 -14.696426 0.000000 0.000000 0.000000 0.000000 0.000000 0.000000 -0.891749 -1.734241 -26.680956 0.209452 1.768691 -0.059319 -2.951028 -1.942042 3.897074 0.000000 0.000000 0.000000 -0.643508 -6.947968 -28.289143 -3.809517 8.722254 2.170449 12.845161 -27.742730 -4.115687 0.000000 0.000000 0.000000
-32.359627 82.899303 330.589306 -0.514570 -0.724401 26.443033 -0.024135 0.108933 -26.462507 -0.041724 0.061094 -0.023789 -4.907088 4.288125 2.282621 0.000000 0.000000 0.000000 -1.268126 -1.577533 0.145239 3.369518 5.255855 -2.780512 -7.219314 -6.455533 24.183739 8.116185 6.696909 -26.672141 0.000000 0.000000 0.000000 0.000000 0.000000 0.000000 -0.094471 1.088342 0.255859 10.656959 -3.625125 -4.051372 -23.250280 3.129190 -9.341001 -16.823962 15.649889 -15.164751 0.000000 0.000000 0.000000 0.000000 0.000000 0.000000 -1.012411 -2.005151 -26.654145 0.312064 1.978783 -0.061643 -3.262753 -2.203519 4.355546 0.000000 0.000000 0.000000 -0.882894 -7.586336 -28.386712 -3.756734 9.431800 2.330726 16.880455 -36.793163 -4.734231 0.000000 0.000000 0.000000
-32.289302 82.947172 330.222106 -0.651933 -0.758229 26.043769 -0.026607 0.103950 -26.068498 -0.040879 0.061723 -0.028937 -5.404898 4.266818 2.342713 0.000000 0.000000 0.000000 -1.439229 -2.014784 0.178067 3.739838 4.745907 -3.319989 -5.735749 -13.177715 20.373113 8.267766 12.663928 -17.877259 0.000000 0.000000 0.000000 0.000000 0.000000 0.000000 0.761789 0.615452 0.046862 14.076364 -4.228490 -6.225974 -27.672218 1.992693 -5.919749 -15.646189 18.858770 -17.726308 0.000000 0.000000 0.000000 0.000000 0.000000 0.000000 -1.099956 -2.284314 -26.291123 0.366088 2.181051 -0.073440 -3.209983 -2.198221 4.448149 0.000000 0.000000 0.000000 -1.004914 -7.881485 -28.054132 -3.530045 9.679728 2.351659 20.738332 -44.632583 -4.591762 0.000000 0.000000 0.000000
-32.243816 82.992631 329.925985 -0.768548 -0.718579 25.661598 -0.021019 0.097754 -25.690426 -0.036379 0.059167 -0.033028 -5.775180 3.917820 2.246966 0.000000 0.000000 0.000000 -1.496990 -2.189466 0.184588 3.542616 3.906813 -2.792625 -4.407639 -20.088036 13.711565 7.974819 15.060550 -12.260233 0.000000 0.000000 0.000000 0.000000 0.000000 0.000000 0.865586 0.581270 0.054228 15.398323 -4.763522 -6.635193 -28.401584 0.067683 -2.413915 -11.394304 21.124525 -19.376037 0.000000 0.000000 0.000000 0.000000 0.000000 0.000000 -1.170029 -2.550903 -25.937516 0.368839 2.312956 -0.093631 -3.002995 -1.844491 4.283938 0.000000 0.000000 0.000000 -1.062081 -7.877842 -27.646639 -3.184459 9.394145 2.227380 23.490392 -49.436661 -3.951059 0.000000 0.000000 0.000000
-32.209736 83.010854 329.673656 -0.847638 -0.640850 25.428316 -0.006987 0.095130 -25.459417 -0.029482 0.058138 -0.035427 -6.034586 3.525703 2.123171 0.000000 0.000000 0.000000 -1.703717 -2.664870 0.201189 3.690496 3.461468 -2.839808 -3.896454 -23.874169 7.890788 6.508885 21.523487 -3.515958 0.000000 0.000000 0.000000 0.000000 0.000000 0.000000 0.923696 0.500802 0.059245 15.199609 -4.824889 -6.239820 -28.053529 0.371555 -2.628547 -13.207627 20.756022 -19.270408 0.000000 0.000000 0.000000 0.000000 0.000000 0.000000 -1.263596 -2.811103 -25.728814 0.374669 2.485960 -0.098200 -3.133684 -1.375107 4.266920 0.000000 0.000000 0.000000 -1.110131 -7.930633 -27.399746 -2.918329 9.146067 2.136272 24.085578 -50.245348 -3.448944 0.000000 0.000000 0.000000
-32.178302 83.000443 329.469281 -0.880773 -0.539481 25.279382 0.013165 0.091485 -25.310681 -0.019880 0.056680 -0.035699 -6.180303 3.288858 2.062271 0.000000 0.000000 0.000000 -1.824330 -2.880725 0.197386 3.794219 2.701757 -3.121623 -3.695125 -24.688681 5.228181 4.308314 28.416388 0.612163 0.000000 0.000000 0.000000 0.000000 0.000000 0.000000 0.212339 -0.008214 -0.131065 16.395048 -4.583495 -6.288435 -29.006424 0.097935 -2.488832 -13.607449 20.702621 -18.787803 0.000000 0.000000 0.000000 0.000000 0.000000 0.000000 -1.401960 -3.036931 -25.603390 0.421732 2.660131 -0.088258 -3.203767 -1.172940 4.253242 0.000000 0.000000 0.000000 -1.156605 -7.960503 -27.231300 -2.739365 8.878821 2.052264 21.598796 -45.721219 -3.547034 0.000000 0.000000 0.000000
-32.140497 82.973031 329.309270 -0.909238 -0.484305 25.301944 0.017016 0.084655 -25.333840 -0.017519 0.051927 -0.036601 -6.016963 3.318581 2.080856 0.000000 0.000000 0.000000 -1.894787 -3.014666 0.197156 3.745492 2.047148 -3.052152 -3.442296 -23.295665 3.478953 2.440116 29.897403 4.146528 0.000000 0.000000 0.000000 0.000000 0.000000 0.000000 0.087576 -0.039854 -0.126492 15.288711 -4.167803 -5.728103 -28.121974 0.587981 -4.064277 -15.430450 16.983565 -15.189200 0.000000 0.000000 0.000000 0.000000 0.000000 0.000000 -1.468648 -3.157808 -25.638641 0.432274 2.744709 -0.087240 -3.322623 -0.830086 4.230306 0.000000 0.000000 0.000000 -1.225604 -8.017113 -27.254587 -2.640976 8.753460 2.005453 21.637900 -45.526986 -3.185292 0.000000 0.000000 0.000000
